<?xml version="1.0" standalone="no"?>
<!DOCTYPE svg PUBLIC "-//W3C//DTD SVG 20010904//EN"
 "http://www.w3.org/TR/2001/REC-SVG-20010904/DTD/svg10.dtd">
<svg version="1.0" xmlns="http://www.w3.org/2000/svg"
 width="1280.000000pt" height="1108.000000pt" viewBox="0 0 1280.000000 1108.000000"
 preserveAspectRatio="xMidYMid meet">
<metadata>
Created by potrace 1.15, written by Peter Selinger 2001-2017
</metadata>
<g transform="translate(0.000000,1108.000000) scale(0.100000,-0.100000)"
fill="#cfa78d" stroke="none">
<path d="M5657 11023 c-19 -32 -547 -944 -1172 -2028 -626 -1083 -1606 -2780
-2178 -3770 -572 -990 -1276 -2209 -1565 -2710 -289 -500 -573 -993 -633
-1095 l-107 -185 18 -35 c10 -19 169 -296 353 -615 l336 -580 5691 0 5691 0
354 613 355 613 -1079 1867 c-1868 3234 -4313 7467 -4463 7727 l-145 250 -711
3 -710 2 -35 -57z m784 -3706 c20 -34 323 -559 674 -1167 351 -608 972 -1684
1381 -2392 409 -708 744 -1290 744 -1293 0 -3 -1278 -5 -2840 -5 -1562 0
-2840 2 -2840 5 0 3 375 655 833 1448 458 793 1096 1898 1418 2454 321 557
586 1013 589 1013 3 0 21 -28 41 -63z"/>
</g>
</svg>
